<svg width="288" height="93" viewBox="0 0 288 93" fill="none" xmlns="http://www.w3.org/2000/svg">
<path d="M26.9569 30.3094C26.1889 28.9014 25.1329 27.8294 23.7889 27.0934C22.4449 26.3574 20.8769 25.9894 19.0849 25.9894C17.1009 25.9894 15.3409 26.4374 13.8049 27.3334C12.2689 28.2294 11.0689 29.5094 10.2049 31.1734C9.34089 32.8374 8.90889 34.7574 8.90889 36.9334C8.90889 39.1734 9.34089 41.1254 10.2049 42.7894C11.1009 44.4534 12.3329 45.7334 13.9009 46.6294C15.4689 47.5254 17.2929 47.9734 19.3729 47.9734C21.9329 47.9734 24.0289 47.3014 25.6609 45.9574C27.2929 44.5814 28.3649 42.6774 28.8769 40.2454H17.3569V35.1094H35.5009V40.9654C35.0529 43.3014 34.0929 45.4614 32.6209 47.4454C31.1489 49.4294 29.2449 51.0294 26.9089 52.2454C24.6049 53.4294 22.0129 54.0214 19.1329 54.0214C15.9009 54.0214 12.9729 53.3014 10.3489 51.8614C7.75689 50.3894 5.70889 48.3574 4.20489 45.7654C2.73289 43.1734 1.99689 40.2294 1.99689 36.9334C1.99689 33.6374 2.73289 30.6934 4.20489 28.1014C5.70889 25.4774 7.75689 23.4454 10.3489 22.0054C12.9729 20.5334 15.8849 19.7974 19.0849 19.7974C22.8609 19.7974 26.1409 20.7254 28.9249 22.5814C31.7089 24.4054 33.6289 26.9814 34.6849 30.3094H26.9569ZM64.9526 39.8614C64.9526 40.8214 64.8886 41.6854 64.7606 42.4534H45.3206C45.4806 44.3734 46.1526 45.8774 47.3366 46.9654C48.5206 48.0534 49.9766 48.5974 51.7046 48.5974C54.2006 48.5974 55.9766 47.5254 57.0326 45.3814H64.2806C63.5126 47.9414 62.0406 50.0534 59.8646 51.7174C57.6886 53.3494 55.0166 54.1654 51.8486 54.1654C49.2886 54.1654 46.9846 53.6054 44.9366 52.4854C42.9206 51.3334 41.3366 49.7174 40.1846 47.6374C39.0646 45.5574 38.5046 43.1574 38.5046 40.4374C38.5046 37.6854 39.0646 35.2694 40.1846 33.1894C41.3046 31.1094 42.8726 29.5094 44.8886 28.3894C46.9046 27.2694 49.2246 26.7094 51.8486 26.7094C54.3766 26.7094 56.6326 27.2534 58.6166 28.3414C60.6326 29.4294 62.1846 30.9814 63.2726 32.9974C64.3926 34.9814 64.9526 37.2694 64.9526 39.8614ZM57.9926 37.9414C57.9606 36.2134 57.3366 34.8374 56.1206 33.8134C54.9046 32.7574 53.4166 32.2294 51.6566 32.2294C49.9926 32.2294 48.5846 32.7414 47.4326 33.7654C46.3126 34.7574 45.6246 36.1494 45.3686 37.9414H57.9926ZM102.642 26.7574C105.906 26.7574 108.53 27.7654 110.514 29.7814C112.53 31.7654 113.538 34.5494 113.538 38.1334V53.7334H106.818V39.0454C106.818 36.9654 106.29 35.3814 105.234 34.2934C104.178 33.1734 102.738 32.6134 100.914 32.6134C99.0896 32.6134 97.6336 33.1734 96.5456 34.2934C95.4896 35.3814 94.9616 36.9654 94.9616 39.0454V53.7334H88.2416V39.0454C88.2416 36.9654 87.7136 35.3814 86.6576 34.2934C85.6016 33.1734 84.1616 32.6134 82.3376 32.6134C80.4816 32.6134 79.0096 33.1734 77.9216 34.2934C76.8656 35.3814 76.3376 36.9654 76.3376 39.0454V53.7334H69.6176V27.1414H76.3376V30.3574C77.2016 29.2374 78.3056 28.3574 79.6496 27.7174C81.0256 27.0774 82.5296 26.7574 84.1616 26.7574C86.2416 26.7574 88.0976 27.2054 89.7296 28.1014C91.3616 28.9654 92.6256 30.2134 93.5216 31.8454C94.3856 30.3094 95.6336 29.0774 97.2656 28.1494C98.9296 27.2214 100.722 26.7574 102.642 26.7574Z" fill="white"/>
<path d="M123.464 53.7415L160.15 7.98822" stroke="url(#paint0_linear_203_17)" stroke-width="7" stroke-linecap="round"/>
<path d="M161.7 60.2363L120.795 18.2125" stroke="url(#paint1_linear_203_17)" stroke-width="7" stroke-linecap="round"/>
<defs>
<linearGradient id="paint0_linear_203_17" x1="123.307" y1="30.992" x2="174" y2="31.0002" gradientUnits="userSpaceOnUse">
<stop stop-color="#FB7979"/>
<stop offset="1" stop-color="#4B93FF"/>
</linearGradient>
<linearGradient id="paint1_linear_203_17" x1="117" y1="31.5002" x2="187.5" y2="37.0002" gradientUnits="userSpaceOnUse">
<stop stop-color="#FF5353"/>
<stop offset="1" stop-color="#4B93FF"/>
</linearGradient>
</defs>
</svg>
