<svg width="168" height="66" viewBox="0 0 168 66" fill="none" xmlns="http://www.w3.org/2000/svg">
<path d="M26.64 29.576C25.872 28.168 24.816 27.096 23.472 26.36C22.128 25.624 20.56 25.256 18.768 25.256C16.784 25.256 15.024 25.704 13.488 26.6C11.952 27.496 10.752 28.776 9.888 30.44C9.024 32.104 8.592 34.024 8.592 36.2C8.592 38.44 9.024 40.392 9.888 42.056C10.784 43.72 12.016 45 13.584 45.896C15.152 46.792 16.976 47.24 19.056 47.24C21.616 47.24 23.712 46.568 25.344 45.224C26.976 43.848 28.048 41.944 28.56 39.512H17.04V34.376H35.184V40.232C34.736 42.568 33.776 44.728 32.304 46.712C30.832 48.696 28.928 50.296 26.592 51.512C24.288 52.696 21.696 53.288 18.816 53.288C15.584 53.288 12.656 52.568 10.032 51.128C7.44 49.656 5.392 47.624 3.888 45.032C2.416 42.44 1.68 39.496 1.68 36.2C1.68 32.904 2.416 29.96 3.888 27.368C5.392 24.744 7.44 22.712 10.032 21.272C12.656 19.8 15.568 19.064 18.768 19.064C22.544 19.064 25.824 19.992 28.608 21.848C31.392 23.672 33.312 26.248 34.368 29.576H26.64ZM64.6358 39.128C64.6358 40.088 64.5718 40.952 64.4438 41.72H45.0037C45.1637 43.64 45.8357 45.144 47.0197 46.232C48.2037 47.32 49.6597 47.864 51.3877 47.864C53.8837 47.864 55.6597 46.792 56.7157 44.648H63.9638C63.1957 47.208 61.7237 49.32 59.5477 50.984C57.3717 52.616 54.6997 53.432 51.5317 53.432C48.9717 53.432 46.6677 52.872 44.6197 51.752C42.6037 50.6 41.0197 48.984 39.8677 46.904C38.7477 44.824 38.1877 42.424 38.1877 39.704C38.1877 36.952 38.7477 34.536 39.8677 32.456C40.9877 30.376 42.5557 28.776 44.5717 27.656C46.5877 26.536 48.9077 25.976 51.5317 25.976C54.0597 25.976 56.3157 26.52 58.2997 27.608C60.3158 28.696 61.8678 30.248 62.9557 32.264C64.0758 34.248 64.6358 36.536 64.6358 39.128ZM57.6757 37.208C57.6437 35.48 57.0197 34.104 55.8037 33.08C54.5877 32.024 53.0997 31.496 51.3397 31.496C49.6757 31.496 48.2677 32.008 47.1157 33.032C45.9957 34.024 45.3077 35.416 45.0517 37.208H57.6757ZM102.325 26.024C105.589 26.024 108.213 27.032 110.197 29.048C112.213 31.032 113.221 33.816 113.221 37.4V53H106.501V38.312C106.501 36.232 105.973 34.648 104.917 33.56C103.861 32.44 102.421 31.88 100.597 31.88C98.7727 31.88 97.3167 32.44 96.2287 33.56C95.1727 34.648 94.6447 36.232 94.6447 38.312V53H87.9247V38.312C87.9247 36.232 87.3967 34.648 86.3407 33.56C85.2847 32.44 83.8447 31.88 82.0207 31.88C80.1647 31.88 78.6927 32.44 77.6047 33.56C76.5487 34.648 76.0207 36.232 76.0207 38.312V53H69.3007V26.408H76.0207V29.624C76.8847 28.504 77.9887 27.624 79.3327 26.984C80.7087 26.344 82.2127 26.024 83.8447 26.024C85.9247 26.024 87.7807 26.472 89.4127 27.368C91.0447 28.232 92.3087 29.48 93.2047 31.112C94.0687 29.576 95.3167 28.344 96.9487 27.416C98.6127 26.488 100.405 26.024 102.325 26.024Z" fill="#292929"/>
<path d="M122.146 55.0063L158.835 9.25555" stroke="url(#paint0_linear_252_2)" stroke-width="7" stroke-linecap="round"/>
<path d="M160.381 61.5039L119.479 19.4774" stroke="url(#paint1_linear_252_2)" stroke-width="7" stroke-linecap="round"/>
<defs>
<linearGradient id="paint0_linear_252_2" x1="121.991" y1="32.2569" x2="172.683" y2="32.2685" gradientUnits="userSpaceOnUse">
<stop stop-color="#FB7979"/>
<stop offset="1" stop-color="#4B93FF"/>
</linearGradient>
<linearGradient id="paint1_linear_252_2" x1="115.683" y1="32.7649" x2="186.183" y2="38.2695" gradientUnits="userSpaceOnUse">
<stop stop-color="#FF5353"/>
<stop offset="1" stop-color="#4B93FF"/>
</linearGradient>
</defs>
</svg>
