<svg width="60" height="60" viewBox="0 0 60 60" fill="none" xmlns="http://www.w3.org/2000/svg">
<g filter="url(#filter0_di_102_32)">
<path d="M2 21.998C2 10.9524 10.9543 1.99805 22 1.99805L52 1.99805C53.1046 1.99805 54 2.89348 54 3.99805L54 32.998C54 44.0437 45.0457 52.998 34 52.998L4 52.998C2.89543 52.998 2 52.1026 2 50.998L2 21.998Z" fill="url(#paint0_linear_102_32)"/>
</g>
<path d="M29.6189 40.4005C27.9631 40.377 26.4793 40.0678 25.1676 39.4731C23.8803 38.8547 22.872 38.0243 22.1428 36.9818C21.4139 35.9154 21.0471 34.698 21.0426 33.3298L24.5342 33.3795C24.6375 34.5571 25.1033 35.5598 25.9316 36.3877C26.7842 37.1919 28.0265 37.6056 29.6583 37.6288C31.2182 37.651 32.4475 37.2844 33.3463 36.5292C34.2695 35.7502 34.7398 34.7488 34.7572 33.5249C34.7709 32.565 34.518 31.7813 33.9986 31.1739C33.4792 30.5664 32.8257 30.1011 32.0382 29.7779C31.2508 29.4546 30.1876 29.1035 28.8489 28.7244C27.1992 28.2689 25.8735 27.818 24.8717 27.3717C23.894 26.9257 23.0516 26.2417 22.3447 25.3195C21.6621 24.3737 21.3318 23.1209 21.354 21.5611C21.3735 20.1932 21.7387 18.9863 22.4496 17.9403C23.1606 16.8943 24.1441 16.0922 25.4002 15.534C26.6802 14.9762 28.1362 14.7088 29.768 14.7321C32.1198 14.7655 34.0312 15.3808 35.5023 16.5778C36.9975 17.7752 37.8272 19.3472 37.9915 21.2937L34.3919 21.2425C34.2856 20.2809 33.7936 19.4338 32.9159 18.7012C32.0386 17.9447 30.868 17.556 29.4041 17.5352C28.0363 17.5157 26.9152 17.8598 26.0411 18.5674C25.1673 19.2511 24.7213 20.2288 24.7032 21.5007C24.6903 22.4126 24.9316 23.1601 25.4274 23.7432C25.9472 24.3267 26.5768 24.7797 27.3163 25.1022C28.0801 25.4011 29.1432 25.7523 30.5056 26.1557C32.1549 26.6352 33.4803 27.1101 34.4817 27.5804C35.4835 28.0267 36.3377 28.7229 37.0443 29.6691C37.7512 30.5912 38.0935 31.8442 38.0709 33.428C38.0535 34.6519 37.7132 35.7992 37.0499 36.8699C36.3866 37.9405 35.4142 38.8028 34.1328 39.4566C32.8513 40.1105 31.3467 40.4251 29.6189 40.4005Z" fill="white"/>
<path d="M18.6043 37.2247C18.6051 37.5007 18.5577 37.7488 18.4623 37.969C18.3628 38.1853 18.2273 38.3556 18.0556 38.4801C17.8799 38.6046 17.6781 38.6691 17.4501 38.6737L17.4486 38.0917C17.6445 38.0712 17.8103 37.9907 17.946 37.8504C18.0776 37.706 18.143 37.4979 18.1423 37.2259C18.1417 36.9659 18.0771 36.762 17.9487 36.6144C17.8163 36.4627 17.6481 36.3872 17.4441 36.3877C17.2841 36.3881 17.1543 36.4324 17.0545 36.5207C16.9547 36.609 16.879 36.7192 16.8274 36.8513C16.7757 36.9834 16.7202 37.1616 16.6607 37.3857C16.5895 37.6619 16.518 37.8841 16.4465 38.0523C16.3749 38.2165 16.2633 38.3588 16.1116 38.4792C15.9559 38.5956 15.748 38.6541 15.488 38.6548C15.2601 38.6554 15.0579 38.5979 14.8816 38.4824C14.7053 38.3668 14.5689 38.2052 14.4723 37.9974C14.3758 37.7857 14.3272 37.5438 14.3264 37.2718C14.3254 36.8798 14.4226 36.5596 14.6179 36.311C14.8133 36.0585 15.0729 35.9159 15.3968 35.883L15.3984 36.483C15.2384 36.5034 15.0987 36.5878 14.979 36.7361C14.8554 36.8844 14.7939 37.0806 14.7946 37.3246C14.7952 37.5526 14.8557 37.7384 14.976 37.8821C15.0924 38.0258 15.2566 38.0974 15.4686 38.0968C15.6206 38.0964 15.7445 38.0541 15.8403 37.9699C15.936 37.8816 16.0098 37.7754 16.0614 37.6513C16.1091 37.5232 16.1646 37.345 16.228 37.1169C16.3033 36.8407 16.3787 36.6185 16.4543 36.4503C16.5259 36.2821 16.6395 36.1378 16.7952 36.0174C16.9469 35.897 17.1547 35.8364 17.4187 35.8357C17.6227 35.8352 17.8149 35.8887 17.9951 35.9962C18.1754 36.1038 18.3218 36.2634 18.4344 36.4751C18.5469 36.6868 18.6036 36.9367 18.6043 37.2247ZM18.607 33.6552C18.6078 33.9632 18.5386 34.2433 18.3992 34.4957C18.2599 34.7441 18.0624 34.9406 17.8068 35.0852C17.5471 35.2259 17.2473 35.2967 16.9073 35.2976C16.5713 35.2985 16.2751 35.2272 16.0187 35.0839C15.7584 34.9366 15.5598 34.7371 15.4232 34.4855C15.2825 34.2338 15.2118 33.952 15.211 33.64C15.2102 33.328 15.2794 33.0458 15.4188 32.7935C15.5541 32.5411 15.7496 32.3426 16.0052 32.1979C16.2608 32.0493 16.5586 31.9745 16.8986 31.9736C17.2386 31.9727 17.5388 32.0479 17.7992 32.1993C18.0556 32.3466 18.2541 32.5481 18.3948 32.8037C18.5355 33.0593 18.6062 33.3432 18.607 33.6552ZM18.127 33.6564C18.1265 33.4604 18.08 33.2765 17.9876 33.1048C17.8951 32.933 17.7568 32.7954 17.5725 32.6919C17.3882 32.5843 17.1641 32.5309 16.9001 32.5316C16.6361 32.5323 16.4122 32.5849 16.2285 32.6894C16.0448 32.7938 15.9091 32.9302 15.8216 33.0984C15.73 33.2667 15.6845 33.4488 15.685 33.6448C15.6855 33.8448 15.732 34.0287 15.8244 34.1964C15.9129 34.3602 16.0492 34.4918 16.2335 34.5913C16.4177 34.6909 16.6419 34.7403 16.9059 34.7396C17.1739 34.7389 17.3997 34.6903 17.5835 34.5938C17.7672 34.4934 17.9049 34.361 17.9964 34.1968C18.084 34.0325 18.1275 33.8524 18.127 33.6564ZM18.5972 29.8773C18.598 30.1853 18.5287 30.4655 18.3894 30.7178C18.25 30.9662 18.0525 31.1627 17.7969 31.3074C17.5373 31.448 17.2375 31.5188 16.8975 31.5197C16.5615 31.5206 16.2653 31.4494 16.0089 31.306C15.7485 31.1587 15.55 30.9592 15.4133 30.7076C15.2727 30.4559 15.202 30.1741 15.2011 29.8621C15.2003 29.5501 15.2696 29.268 15.4089 29.0156C15.5443 28.7632 15.7398 28.5647 15.9954 28.4201C16.251 28.2714 16.5488 28.1966 16.8888 28.1957C17.2288 28.1948 17.529 28.2701 17.7894 28.4214C18.0458 28.5687 18.2443 28.7702 18.385 29.0258C18.5256 29.2815 18.5964 29.5653 18.5972 29.8773ZM18.1172 29.8785C18.1167 29.6825 18.0702 29.4987 17.9778 29.3269C17.8853 29.1551 17.7469 29.0175 17.5627 28.914C17.3784 28.8065 17.1543 28.753 16.8903 28.7537C16.6263 28.7544 16.4024 28.807 16.2187 28.9115C16.0349 29.016 15.8993 29.1523 15.8117 29.3205C15.7202 29.4888 15.6746 29.6709 15.6752 29.8669C15.6757 30.0669 15.7222 30.2508 15.8146 30.4185C15.903 30.5823 16.0394 30.7139 16.2236 30.8135C16.4079 30.913 16.632 30.9624 16.896 30.9617C17.164 30.961 17.3899 30.9124 17.5736 30.816C17.7574 30.7155 17.895 30.5831 17.9866 30.4189C18.0742 30.2546 18.1177 30.0745 18.1172 29.8785ZM16.8876 27.7418C16.5476 27.7427 16.2514 27.6755 15.9991 27.5402C15.7427 27.4048 15.5442 27.2173 15.4036 26.9777C15.263 26.7341 15.1923 26.4563 15.1915 26.1443C15.1904 25.7403 15.2875 25.408 15.4829 25.1475C15.6782 24.883 15.9497 24.7083 16.2975 24.6234L16.299 25.2114C16.0992 25.2679 15.9415 25.3783 15.8259 25.5426C15.7103 25.7029 15.6528 25.9031 15.6534 26.143C15.6543 26.455 15.7629 26.7068 15.9794 26.8982C16.1919 27.0896 16.4942 27.1849 16.8862 27.1838C17.2822 27.1828 17.5879 27.086 17.8034 26.8934C18.0189 26.7009 18.1263 26.4486 18.1254 26.1366C18.1248 25.8966 18.0683 25.6968 17.9559 25.537C17.8435 25.3773 17.6832 25.2678 17.475 25.2083L17.4735 24.6203C17.8097 24.7074 18.0802 24.8827 18.2849 25.1462C18.4855 25.4097 18.5864 25.7394 18.5874 26.1354C18.5883 26.4474 18.519 26.7256 18.3796 26.9699C18.2402 27.2103 18.0427 27.3988 17.7871 27.5355C17.5314 27.6722 17.2316 27.7409 16.8876 27.7418ZM14.705 23.677C14.7053 23.781 14.6695 23.8691 14.5977 23.9413C14.5259 24.0134 14.438 24.0497 14.334 24.0499C14.23 24.0502 14.1419 24.0144 14.0697 23.9426C13.9975 23.8708 13.9613 23.7829 13.961 23.6789C13.9608 23.5789 13.9965 23.4948 14.0684 23.4266C14.1402 23.3545 14.2281 23.3182 14.3321 23.318C14.4361 23.3177 14.5242 23.3535 14.5964 23.4253C14.6685 23.4931 14.7048 23.577 14.705 23.677ZM15.2383 23.4116L18.5263 23.403L18.5277 23.949L15.2398 23.9576L15.2383 23.4116ZM15.2285 19.625L18.5165 19.6165L18.5179 20.1625L18.0319 20.1637C18.2001 20.2673 18.3325 20.413 18.429 20.6007C18.5215 20.7845 18.568 20.9883 18.5686 21.2123C18.5693 21.4683 18.5179 21.6985 18.4144 21.9027C18.3069 22.107 18.1474 22.2694 17.9357 22.39C17.724 22.5065 17.4661 22.5652 17.1621 22.566L15.2361 22.571L15.2347 22.031L17.0887 22.0262C17.4127 22.0254 17.6625 21.9427 17.8381 21.7782C18.0097 21.6138 18.0951 21.3896 18.0943 21.1056C18.0936 20.8136 18.003 20.5838 17.8225 20.4163C17.6421 20.2488 17.3799 20.1654 17.0359 20.1663L15.2299 20.171L15.2285 19.625ZM18.5652 17.5904C18.5658 17.8424 18.5244 18.0686 18.4409 18.2688C18.3535 18.469 18.2339 18.6273 18.0822 18.7437C17.9265 18.8601 17.7486 18.9246 17.5487 18.9371L17.5472 18.3731C17.7112 18.3567 17.845 18.2803 17.9486 18.1441C18.0523 18.0038 18.1038 17.8217 18.1032 17.5977C18.1027 17.3897 18.0562 17.2258 17.9639 17.106C17.8716 16.9863 17.7554 16.9266 17.6154 16.9269C17.4714 16.9273 17.3656 16.9916 17.2979 17.1197C17.2263 17.2479 17.1568 17.4461 17.0895 17.7143C17.0261 17.9585 16.9626 18.1586 16.8991 18.3148C16.8315 18.467 16.7338 18.5992 16.6061 18.7116C16.4744 18.8199 16.3025 18.8743 16.0905 18.8749C15.9225 18.8753 15.7684 18.8257 15.6281 18.7261C15.4879 18.6265 15.3775 18.4848 15.297 18.301C15.2125 18.1172 15.17 17.9073 15.1694 17.6713C15.1684 17.3073 15.2597 17.0131 15.4431 16.7886C15.6265 16.5641 15.8782 16.4434 16.1981 16.4266L16.1996 16.9726C16.0276 16.9851 15.8898 17.0554 15.7861 17.1837C15.6824 17.308 15.6309 17.4761 15.6314 17.6881C15.6319 17.8841 15.6743 18.04 15.7586 18.1558C15.8429 18.2715 15.9531 18.3293 16.0891 18.3289C16.1971 18.3286 16.287 18.2944 16.3588 18.2262C16.4266 18.154 16.4824 18.0659 16.5261 17.9618C16.5659 17.8537 16.6115 17.7055 16.663 17.5174C16.7264 17.2812 16.7899 17.0891 16.8535 16.9409C16.9131 16.7928 17.0048 16.6665 17.1285 16.5622C17.2522 16.4539 17.4141 16.3974 17.6141 16.3929C17.7941 16.3925 17.9562 16.442 18.1004 16.5417C18.2447 16.6413 18.3591 16.783 18.4435 16.9668C18.524 17.1466 18.5646 17.3545 18.5652 17.5904Z" fill="#F1F1F1"/>
<defs>
<filter id="filter0_di_102_32" x="0" y="0.998047" width="60" height="59" filterUnits="userSpaceOnUse" color-interpolation-filters="sRGB">
<feFlood flood-opacity="0" result="BackgroundImageFix"/>
<feColorMatrix in="SourceAlpha" type="matrix" values="0 0 0 0 0 0 0 0 0 0 0 0 0 0 0 0 0 0 127 0" result="hardAlpha"/>
<feMorphology radius="3" operator="erode" in="SourceAlpha" result="effect1_dropShadow_102_32"/>
<feOffset dx="2" dy="3"/>
<feGaussianBlur stdDeviation="3.5"/>
<feComposite in2="hardAlpha" operator="out"/>
<feColorMatrix type="matrix" values="0 0 0 0 0 0 0 0 0 0 0 0 0 0 0 0 0 0 0.17 0"/>
<feBlend mode="normal" in2="BackgroundImageFix" result="effect1_dropShadow_102_32"/>
<feBlend mode="normal" in="SourceGraphic" in2="effect1_dropShadow_102_32" result="shape"/>
<feColorMatrix in="SourceAlpha" type="matrix" values="0 0 0 0 0 0 0 0 0 0 0 0 0 0 0 0 0 0 127 0" result="hardAlpha"/>
<feMorphology radius="2" operator="dilate" in="SourceAlpha" result="effect2_innerShadow_102_32"/>
<feOffset/>
<feGaussianBlur stdDeviation="3"/>
<feComposite in2="hardAlpha" operator="arithmetic" k2="-1" k3="1"/>
<feColorMatrix type="matrix" values="0 0 0 0 0 0 0 0 0 0 0 0 0 0 0 0 0 0 0.48 0"/>
<feBlend mode="normal" in2="shape" result="effect2_innerShadow_102_32"/>
</filter>
<linearGradient id="paint0_linear_102_32" x1="16.0001" y1="1.99811" x2="47.5001" y2="45.9981" gradientUnits="userSpaceOnUse">
<stop stop-color="#FF7272"/>
<stop offset="1" stop-color="#C972FF"/>
</linearGradient>
</defs>
</svg>
